<svg width="187" height="187" viewBox="0 0 187 187" fill="none" xmlns="http://www.w3.org/2000/svg">
<g clip-path="url(#clip0_580_1002)">
<path d="M93.4998 183.104C142.987 183.104 183.104 142.987 183.104 93.5003C183.104 44.0134 142.987 3.89648 93.4998 3.89648C44.0129 3.89648 3.89575 44.0134 3.89575 93.5003C3.89575 142.987 44.0129 183.104 93.4998 183.104Z" fill="url(#paint0_linear_580_1002)"/>
<path d="M105.925 104.393C105.363 104.209 101.808 102.606 104.029 95.8533H103.997C109.788 89.889 114.214 80.2918 114.214 70.8431C114.214 56.3145 104.553 48.6982 93.3247 48.6982C82.0896 48.6982 72.4817 56.311 72.4817 70.8431C72.4817 80.3307 76.8823 89.9668 82.7086 95.9169C84.9797 101.874 80.9186 104.085 80.0696 104.393C72.1535 106.953 50.6186 119.716 50.9593 138.302H136.039C136.418 120.547 119.385 109.017 105.925 104.393Z" fill="white" fill-opacity="0.846939"/>
</g>
<defs>
<linearGradient id="paint0_linear_580_1002" x1="89.8037" y1="178.885" x2="89.8037" y2="6.07756" gradientUnits="userSpaceOnUse">
<stop stop-color="#197FF1"/>
<stop offset="1" stop-color="#21C6FB"/>
</linearGradient>
<clipPath id="clip0_580_1002">
<rect width="187" height="187" fill="white"/>
</clipPath>
</defs>
</svg>
