<svg width="207" height="168" viewBox="0 0 207 168" fill="none" xmlns="http://www.w3.org/2000/svg">
<path d="M67.4503 115.417C66.6778 115.417 65.9053 115.548 65.165 115.778C60.9806 117.155 56.6031 118.04 52.0003 118.04C47.3975 118.04 42.9878 117.155 38.8357 115.778C38.0953 115.548 37.3229 115.417 36.5504 115.417C16.562 115.417 0.403868 131.975 0.500431 152.337C0.532618 160.961 7.4851 167.879 15.9504 167.879H88.0502C96.5155 167.879 103.468 160.961 103.5 152.337C103.597 131.975 87.4387 115.417 67.4503 115.417ZM52.0003 104.925C69.0597 104.925 82.9003 90.8253 82.9003 73.4472C82.9003 56.069 69.0597 41.9698 52.0003 41.9698C34.941 41.9698 21.1004 56.069 21.1004 73.4472C21.1004 90.8253 34.941 104.925 52.0003 104.925ZM191.05 0H67.4503C58.9206 0 52.0003 7.27914 52.0003 16.2633V31.4774C59.5322 31.4774 66.5169 33.707 72.6003 37.3138V20.9849H185.9V115.417H165.3V94.4321H124.1V115.417H99.5733C105.721 120.893 110.227 128.106 112.352 136.402H191.05C199.58 136.402 206.5 129.123 206.5 120.139V16.2633C206.5 7.27914 199.58 0 191.05 0Z" fill="url(#paint0_linear_538_792)"/>
<defs>
<linearGradient id="paint0_linear_538_792" x1="102.526" y1="3.57892" x2="103.537" y2="167.879" gradientUnits="userSpaceOnUse">
<stop stop-color="#40C2E3"/>
<stop offset="1" stop-color="#255BBE"/>
</linearGradient>
</defs>
</svg>
