<svg width="200" height="201" viewBox="0 0 200 201" fill="none" xmlns="http://www.w3.org/2000/svg">
<g clip-path="url(#clip0_538_799)">
<path d="M196.757 91.8967C196.86 91.4378 196.93 91.0157 197.033 90.5567C197.557 87.8131 197.833 84.9957 197.833 82.0779C197.833 57.1941 177.857 37.0974 153.277 37.0974C149.823 37.0974 146.477 37.486 143.303 38.2599C133.123 22.0693 115.237 11.3359 94.8033 11.3359C63.11 11.3359 37.48 37.3085 37.48 69.1971C37.48 70.0045 37.48 70.7783 37.5133 71.5555C34.5521 70.5346 31.4439 70.0105 28.3133 70.0045C12.6866 70.0045 0.0666504 82.7445 0.0666504 98.513C0.0666504 113.297 11.2233 125.437 25.5166 126.844L153.273 127.092C170.08 127.092 184.653 117.729 192.253 103.967C192.463 103.582 192.673 103.196 192.883 102.771C193.997 100.412 195.707 96.6839 196.75 91.8967H196.757Z" fill="#50E6FF"/>
<path d="M200 111.819L120.533 145.463L41.1133 111.823L120.533 78.1719L200 111.819Z" fill="#0078D7"/>
<path d="M120.537 152.124L74.3033 132.412V145.367C74.3033 158.458 94.3167 169.085 119.387 169.085C144.42 169.085 166.42 158.458 166.42 145.367V133.397L120.537 152.124ZM175 177.53C176.106 177.528 177.201 177.307 178.222 176.879C179.243 176.452 180.17 175.826 180.95 175.038C181.731 174.251 182.349 173.316 182.77 172.288C183.191 171.26 183.406 170.159 183.403 169.048C183.406 167.936 183.191 166.836 182.77 165.808C182.349 164.78 181.731 163.846 180.951 163.058C180.171 162.271 179.245 161.645 178.224 161.217C177.203 160.79 176.109 160.568 175.003 160.566C173.897 160.568 172.803 160.789 171.782 161.216C170.761 161.644 169.834 162.269 169.053 163.057C168.273 163.845 167.655 164.779 167.234 165.807C166.813 166.835 166.597 167.936 166.6 169.048C166.597 170.159 166.813 171.26 167.233 172.288C167.654 173.315 168.272 174.25 169.052 175.037C169.832 175.825 170.759 176.45 171.779 176.878C172.8 177.306 173.894 177.527 175 177.53Z" fill="#0078D7"/>
<path d="M178.103 171.744C178.103 171.744 181.59 180.33 187.1 183.851C192.61 187.368 197.84 188.883 197.84 188.883L182.113 200.989C182.113 200.989 173.883 198.457 172.63 186.102C171.373 173.751 175.767 169.071 175.767 169.071L178.103 171.744ZM178.557 111.883H171.307V164.361H178.557V111.883Z" fill="#0078D7"/>
</g>
<defs>
<clipPath id="clip0_538_799">
<rect width="200" height="201" fill="white"/>
</clipPath>
</defs>
</svg>
